# xmcd
#
# Track frame offsets: 
#        182
#        25002
#        53807
#        63197
#        85362
#        120362
#        133687
#        158955
#        183745
#        192760
#        239517
#
# Disc length: 3511 seconds
#
# Revision: 5
# Processed by: cddbd v1.5.2PL0 Copyright (c) Steve Scherf et al.
# Submitted via: ExactAudioCopy v0.95b4
#
DISCID=900db50b
DTITLE=The Legendary Pink Dots - 9 Lives to Wonder
DYEAR=1994
DGENRE=Progressive Rock
TTITLE0=Madame Guillotine
TTITLE1=On Another Shore
TTITLE2=Softly Softly
TTITLE3=Crumbs on the Carpet
TTITLE4=Hotel Z
TTITLE5=Oasis Malade
TTITLE6=A Crack in Melancholy Time
TTITLE7=Siren
TTITLE8=The Angel Trail
TTITLE9=Nine Shades to the Circle
TTITLE10=A Terra Firma Welcome - Find a Bin to Put It In
EXTD=
EXTT0=
EXTT1=
EXTT2=
EXTT3=
EXTT4=
EXTT5=
EXTT6=
EXTT7=
EXTT8=
EXTT9=
EXTT10=
PLAYORDER=
